<svg width="24" height="24" viewBox="0 0 24 24" fill="none" xmlns="http://www.w3.org/2000/svg">
<g clip-path="url(#clip0_102_41)">
<path d="M12 23.25C8.184 23.25 5.526 23.0075 3.9265 22.7945C2.4955 22.6035 1.3925 21.5175 1.187 20.085C0.9785 18.63 0.75 16.332 0.75 13.25C0.75 10.168 0.9785 7.87 1.187 6.415C1.392 4.983 2.4955 3.8965 3.927 3.706C5.5255 3.4925 8.1835 3.25 12 3.25C15.816 3.25 18.474 3.4925 20.0735 3.706C21.5045 3.8965 22.6075 4.983 22.813 6.415C23.0215 7.87 23.25 10.168 23.25 13.25C23.25 16.332 23.0215 18.63 22.813 20.085C22.608 21.517 21.5045 22.6035 20.073 22.7945C18.474 23.0075 15.816 23.25 12 23.25Z" fill="#C3D8EF"/>
<path d="M16.75 7.2588C16.4987 7.25847 16.276 7.2523 16.082 7.2403C14.947 7.1738 14.3085 6.2393 14.273 5.2813C14.2417 4.43309 14.2417 3.58401 14.273 2.7358C14.308 1.7778 14.947 0.843302 16.082 0.776802C16.276 0.765136 16.4987 0.759136 16.75 0.758802C17.0013 0.758469 17.224 0.764469 17.418 0.776802C18.553 0.843302 19.1915 1.7778 19.227 2.7358C19.2583 3.58401 19.2583 4.43309 19.227 5.2813C19.192 6.2393 18.553 7.1738 17.418 7.2403C17.1956 7.25294 16.9728 7.25911 16.75 7.2588ZM7.25 7.2588C6.99866 7.25847 6.776 7.2523 6.582 7.2403C5.447 7.1738 4.8085 6.2393 4.773 5.2813C4.74168 4.43309 4.74168 3.58401 4.773 2.7358C4.808 1.7778 5.447 0.843302 6.582 0.776802C6.776 0.765136 6.99866 0.759136 7.25 0.758802C7.50133 0.758469 7.724 0.764469 7.918 0.776802C9.053 0.843302 9.6915 1.7778 9.727 2.7358C9.75831 3.58401 9.75831 4.43309 9.727 5.2813C9.692 6.2393 9.053 7.1738 7.918 7.2403C7.69556 7.25294 7.4728 7.25911 7.25 7.2588Z" fill="#313E56"/>
<path fill-rule="evenodd" clip-rule="evenodd" d="M8.5 12.5C8.5 12.2348 8.39464 11.9804 8.20711 11.7929C8.01957 11.6054 7.76522 11.5 7.5 11.5H5.5C5.23478 11.5 4.98043 11.6054 4.79289 11.7929C4.60536 11.9804 4.5 12.2348 4.5 12.5C4.5 12.7652 4.60536 13.0196 4.79289 13.2071C4.98043 13.3946 5.23478 13.5 5.5 13.5H7.5C7.76522 13.5 8.01957 13.3946 8.20711 13.2071C8.39464 13.0196 8.5 12.7652 8.5 12.5ZM11 11.5C10.7348 11.5 10.4804 11.6054 10.2929 11.7929C10.1054 11.9804 10 12.2348 10 12.5C10 12.7652 10.1054 13.0196 10.2929 13.2071C10.4804 13.3946 10.7348 13.5 11 13.5H13C13.2652 13.5 13.5196 13.3946 13.7071 13.2071C13.8946 13.0196 14 12.7652 14 12.5C14 12.2348 13.8946 11.9804 13.7071 11.7929C13.5196 11.6054 13.2652 11.5 13 11.5H11ZM16.5 11.5C16.2348 11.5 15.9804 11.6054 15.7929 11.7929C15.6054 11.9804 15.5 12.2348 15.5 12.5C15.5 12.7652 15.6054 13.0196 15.7929 13.2071C15.9804 13.3946 16.2348 13.5 16.5 13.5H18.5C18.7652 13.5 19.0196 13.3946 19.2071 13.2071C19.3946 13.0196 19.5 12.7652 19.5 12.5C19.5 12.2348 19.3946 11.9804 19.2071 11.7929C19.0196 11.6054 18.7652 11.5 18.5 11.5H16.5ZM11 16.5C10.7348 16.5 10.4804 16.6054 10.2929 16.7929C10.1054 16.9804 10 17.2348 10 17.5C10 17.7652 10.1054 18.0196 10.2929 18.2071C10.4804 18.3946 10.7348 18.5 11 18.5H13C13.2652 18.5 13.5196 18.3946 13.7071 18.2071C13.8946 18.0196 14 17.7652 14 17.5C14 17.2348 13.8946 16.9804 13.7071 16.7929C13.5196 16.6054 13.2652 16.5 13 16.5H11ZM15.5 17.5C15.5 17.2348 15.6054 16.9804 15.7929 16.7929C15.9804 16.6054 16.2348 16.5 16.5 16.5H18.5C18.7652 16.5 19.0196 16.6054 19.2071 16.7929C19.3946 16.9804 19.5 17.2348 19.5 17.5C19.5 17.7652 19.3946 18.0196 19.2071 18.2071C19.0196 18.3946 18.7652 18.5 18.5 18.5H16.5C16.2348 18.5 15.9804 18.3946 15.7929 18.2071C15.6054 18.0196 15.5 17.7652 15.5 17.5ZM7.5 16.5C7.76522 16.5 8.01957 16.6054 8.20711 16.7929C8.39464 16.9804 8.5 17.2348 8.5 17.5C8.5 17.7652 8.39464 18.0196 8.20711 18.2071C8.01957 18.3946 7.76522 18.5 7.5 18.5H5.5C5.23478 18.5 4.98043 18.3946 4.79289 18.2071C4.60536 18.0196 4.5 17.7652 4.5 17.5C4.5 17.2348 4.60536 16.9804 4.79289 16.7929C4.98043 16.6054 5.23478 16.5 5.5 16.5H7.5Z" fill="#313E56"/>
</g>
<defs>
<clipPath id="clip0_102_41">
<rect width="24" height="24" fill="white"/>
</clipPath>
</defs>
</svg>
