<svg width="16" height="16" viewBox="0 0 16 16" fill="none" xmlns="http://www.w3.org/2000/svg">
<g clip-path="url(#clip0_102_24)">
<path d="M15.6901 13.7127C15.3326 13.2039 14.5426 12.9327 13.9388 12.9489C13.6926 12.9552 13.4663 13.0214 13.2951 13.1702C13.0976 13.1277 12.9201 13.0489 12.8501 12.8964C12.7938 12.7777 12.8338 12.6364 12.9063 12.4202C12.9801 12.2014 13.0638 11.9527 12.9776 11.6877C12.8688 11.3552 12.5088 10.9564 11.3776 10.9752C11.2551 10.9764 11.1551 11.0777 11.1576 11.2014C11.1588 11.3239 11.2588 11.4227 11.3801 11.4227H11.3838C12.0401 11.4127 12.4663 11.5627 12.5526 11.8264C12.5926 11.9502 12.5413 12.1014 12.4826 12.2764C12.4038 12.5077 12.3076 12.7952 12.4451 13.0864C12.5688 13.3489 12.8038 13.4877 13.0588 13.5664C12.9663 14.0814 13.5638 14.6177 13.9601 14.8514C14.3876 15.1027 14.9726 15.2602 15.4451 15.0702C16.0526 14.8289 16.0138 14.1764 15.6901 13.7127ZM11.3663 12.1414H1.78258C1.64883 12.1414 1.51758 12.2477 1.49133 12.3789L0.941328 15.0727C0.915078 15.2027 1.00133 15.3102 1.13508 15.3102H12.0138C12.1463 15.3102 12.2338 15.2039 12.2076 15.0727L11.6576 12.3789C11.6301 12.2477 11.5001 12.1414 11.3663 12.1414ZM5.77633 10.5614H3.90508C3.61883 10.5614 3.38508 10.7789 3.38508 11.0464V11.5139H9.65383V11.0464C9.65383 10.7802 9.41883 10.5614 9.13258 10.5614H7.26258V9.72516H12.2451C12.6363 9.72516 12.9576 9.40391 12.9576 9.01141V1.40516C12.9576 1.01266 12.6363 0.691406 12.2451 0.691406H0.793828C0.401328 0.691406 0.0800781 1.01266 0.0800781 1.40516V9.01266C0.0800781 9.40516 0.401328 9.72641 0.793828 9.72641H5.77633V10.5614Z" fill="#313E56"/>
<path d="M1.55889 7.88396C1.25889 7.88396 1.01514 7.63896 1.01514 7.33896V2.26521C1.01514 1.96521 1.25889 1.72021 1.55889 1.72021H11.4789C11.7776 1.72021 12.0226 1.96521 12.0226 2.26521V7.33896C12.0226 7.63896 11.7776 7.88396 11.4789 7.88396H1.55889Z" fill="#C3D8EF"/>
<mask id="mask0_102_24" style="mask-type:luminance" maskUnits="userSpaceOnUse" x="1" y="1" width="12" height="7">
<path d="M1.55889 7.88396C1.25889 7.88396 1.01514 7.63896 1.01514 7.33896V2.26521C1.01514 1.96521 1.25889 1.72021 1.55889 1.72021H11.4789C11.7776 1.72021 12.0226 1.96521 12.0226 2.26521V7.33896C12.0226 7.63896 11.7776 7.88396 11.4789 7.88396H1.55889Z" fill="white"/>
</mask>
<g mask="url(#mask0_102_24)">
<path d="M6.34158 1.41895L4.10658 8.51395L0.652832 8.47895V1.4902L6.34158 1.41895Z" fill="white"/>
</g>
<path d="M2.33361 12.8364H10.8861C11.0199 12.8364 11.1286 12.9452 11.1286 13.0789C11.1286 13.2127 11.0199 13.3214 10.8861 13.3214H2.33361C2.20111 13.3214 2.09111 13.2127 2.09111 13.0789C2.09111 12.9439 2.20111 12.8364 2.33361 12.8364ZM11.1186 14.4902H2.10236C1.96861 14.4902 1.85986 14.3814 1.85986 14.2477C1.85986 14.1139 1.96861 14.0052 2.10236 14.0052H11.1199C11.1842 14.0053 11.2458 14.031 11.2912 14.0766C11.3365 14.1222 11.3619 14.184 11.3617 14.2483C11.3616 14.3126 11.3359 14.3742 11.2903 14.4196C11.2447 14.465 11.1829 14.4903 11.1186 14.4902Z" fill="white"/>
<path d="M11.4551 2.28771V7.31522H1.58264V2.28771H11.4551ZM11.4801 1.72021H1.55889C1.25889 1.72021 1.01514 1.96521 1.01514 2.26521V7.33896C1.01514 7.63896 1.25889 7.88396 1.55889 7.88396H11.4789C11.7776 7.88396 12.0226 7.63896 12.0226 7.33896V2.26521C12.0226 1.96521 11.7776 1.72021 11.4801 1.72021Z" fill="#C3D8EF"/>
</g>
<defs>
<clipPath id="clip0_102_24">
<rect width="16" height="16" fill="white"/>
</clipPath>
</defs>
</svg>
