<svg width="16" height="16" viewBox="0 0 16 16" fill="none" xmlns="http://www.w3.org/2000/svg">
<path d="M9.67108 2.41477C5.85358 0.401022 2.37858 1.83602 1.12608 3.79727C0.716078 4.43852 0.426078 5.60477 0.437328 6.52977C0.459828 8.43352 1.51358 10.5548 3.78733 12.6948C6.58483 15.3273 9.43983 15.0973 10.3473 14.876C11.4898 14.5973 12.2561 14.3598 12.1386 13.2948C12.1236 13.1548 12.0036 12.901 11.8223 12.7898C11.2411 12.4373 10.0273 12.2535 9.45608 11.4048C8.62608 10.1685 9.65858 10.106 10.6473 10.6348C11.7061 11.201 12.3111 11.5548 13.3736 11.4573C14.1523 11.386 15.2848 10.916 15.4386 9.60227C15.5761 8.41352 13.8411 4.61477 9.67108 2.41477ZM11.2298 8.87477C10.9373 9.31977 10.2148 9.16727 9.74108 8.74727C9.26733 8.32727 9.20608 7.62727 9.51358 7.35227C9.82608 7.07352 10.4136 7.13727 10.8873 7.55727C11.3598 7.97852 11.4586 8.52477 11.2298 8.87477Z" fill="#313E56"/>
<path d="M9.83887 1.96122C6.02137 -0.0525258 2.53762 1.50497 1.28512 3.46622C0.0313727 5.42872 0.576373 9.06247 3.95387 12.2412C6.75137 14.8737 9.60637 14.6437 10.5139 14.4225C11.6564 14.1437 12.4626 13.6 11.9601 12.9062C11.6139 12.4275 10.3726 12.0662 9.62387 10.9512C8.79387 9.71497 9.82637 9.65247 10.8151 10.1812C11.8739 10.7475 12.4789 11.1012 13.5414 11.0037C14.3201 10.9325 15.4976 10.33 15.4626 9.11247C15.4264 7.91622 14.0089 4.16247 9.83887 1.96122ZM11.5964 8.83997C11.2401 9.22497 10.4814 9.11997 9.90137 8.60747C9.32262 8.09372 9.14137 7.36622 9.49762 6.98247C9.85387 6.59747 10.6126 6.70247 11.1926 7.21497C11.7726 7.72747 11.9526 8.45622 11.5964 8.83997Z" fill="#C3D8EF"/>
<path d="M5.95246 10.5826C6.09621 10.2151 7.11871 9.81257 8.05871 10.4813C8.32246 10.6688 8.65246 11.1463 8.61871 11.7463C8.50871 13.7063 5.29246 12.2738 5.95246 10.5826Z" fill="#EEEEEE"/>
<path d="M2.96647 7.25891C3.29522 6.73391 4.09397 6.67391 4.79272 7.12766C5.41522 7.53141 5.93522 8.52516 5.16772 9.17516C4.75647 9.52391 4.04522 9.30766 3.60647 8.97141C3.07397 8.56516 2.61272 7.82391 2.96647 7.25891Z" fill="#2686C6"/>
<path d="M7.20869 2.6773C7.30994 2.26105 8.01619 2.1898 8.51619 2.37605C9.37994 2.69855 9.77119 3.55355 9.45244 4.0298C8.98619 4.72605 7.96994 4.4873 7.58494 4.08855C6.93119 3.41355 7.12369 3.02605 7.20869 2.6773Z" fill="#FFEE58"/>
<path d="M12.2136 4.71485C12.9061 5.02985 12.9961 5.5286 12.8636 5.89235C12.7811 6.11735 12.6123 6.4261 12.2673 6.4536C11.6836 6.5011 11.6023 6.0186 11.1861 5.8861C10.8361 5.77485 10.6936 5.2961 10.8311 4.97485C10.9586 4.6786 11.3311 4.31235 12.2136 4.71485Z" fill="#7CB342"/>
<path d="M8.37112 12.12C8.19862 12.2763 7.59987 12.4688 6.83987 11.9938C6.58237 11.8325 6.33612 11.5988 6.19737 11.2488C6.08862 10.9738 6.11237 10.7088 6.16112 10.5913C6.30112 10.2525 6.51487 10.19 6.51487 10.19C6.29987 10.175 5.89362 10.46 5.82612 10.8338C5.80487 10.9513 5.65362 11.6863 6.62737 12.3525C7.46612 12.9275 8.70612 12.8738 8.62487 11.7163C8.58737 11.8588 8.48112 12.0213 8.37112 12.12Z" fill="#B0B0B0"/>
<path d="M5.53251 8.2149C5.50876 8.66115 4.98626 8.89615 4.69501 8.8974C3.87126 8.89865 3.13126 8.38115 3.08001 7.4599C3.07126 7.2949 3.15251 7.05615 3.15251 7.05615C3.04376 7.1024 2.89001 7.3374 2.85751 7.4699C2.66501 8.2649 3.46626 9.19115 4.31001 9.37865C4.73751 9.47365 5.27626 9.3274 5.47251 8.9449C5.61251 8.6724 5.58501 8.43865 5.53251 8.2149Z" fill="#01579B"/>
<path d="M8.41519 4.08996C7.85519 4.02621 7.54519 3.65996 7.46394 3.57621C7.24144 3.34371 7.10394 3.11746 7.18394 2.78246C7.20894 2.67496 7.27019 2.53746 7.34519 2.45996C7.25394 2.48996 7.10644 2.68621 7.06019 2.79246C7.01269 2.89871 6.84019 3.29746 7.21019 3.78871C7.43894 4.09371 7.83769 4.43746 8.42769 4.51996C8.84644 4.57871 9.14644 4.42871 9.39644 4.18496C9.56644 4.01871 9.64144 3.64371 9.54019 3.44996C9.55644 3.59121 9.29769 4.19121 8.41519 4.08996Z" fill="#DF7F14"/>
<path d="M13.0213 5.60629C12.9701 5.41754 12.8238 5.22129 12.8088 5.21129C12.8726 5.33379 12.9988 5.70129 12.7338 6.05879C12.6001 6.23879 12.1976 6.46004 11.7226 6.07504C11.5826 5.96129 11.4701 5.84879 11.2176 5.75629C10.5763 5.52004 10.8563 4.86754 11.0788 4.66504C10.9038 4.75629 10.7451 4.92004 10.6788 5.17004C10.5863 5.51879 10.8151 5.88379 11.1626 6.05879C11.5576 6.25754 11.6851 6.64129 12.2263 6.64129C12.2538 6.64129 12.2826 6.64004 12.3138 6.63754C12.6788 6.60629 12.8326 6.46504 12.9438 6.29254C13.0801 6.07754 13.0838 5.83379 13.0213 5.60629Z" fill="#558B2F"/>
<path d="M3.22736 3.22375C3.51236 2.9425 4.00861 2.645 4.73486 3.02375C5.17236 3.25125 5.68111 3.51875 5.45111 4.44375C5.30861 5.0175 4.47361 5.32125 3.77611 4.6825C3.49986 4.43 2.44986 3.99125 3.22736 3.22375Z" fill="#F44336"/>
<path d="M5.61764 4.32006C5.62639 4.10131 5.51389 3.83506 5.47514 3.74506C5.48139 3.87631 5.59514 4.20756 5.07389 4.64631C4.89264 4.79881 4.56389 4.91506 4.20514 4.77381C4.02139 4.70131 3.75764 4.39756 3.56889 4.32131C2.86764 4.03881 3.17014 3.28756 3.26889 3.18506C3.11014 3.29631 2.97514 3.47381 2.92514 3.73256C2.86014 4.07131 2.92014 4.39131 3.38514 4.75756C4.70514 5.79881 5.11014 5.17131 5.25389 5.01131C5.43514 4.81631 5.60764 4.56131 5.61764 4.32006Z" fill="#C62828"/>
</svg>
