<svg width="16" height="16" viewBox="0 0 16 16" fill="none" xmlns="http://www.w3.org/2000/svg">
<g clip-path="url(#clip0_102_46)">
<path d="M12.3623 0.38916C10.8428 0.38916 9.54854 1.33841 9.03054 2.67491H5.94904C5.382 2.67491 4.83819 2.90016 4.43724 3.30112C4.03629 3.70207 3.81104 4.24588 3.81104 4.81291C3.81104 5.37994 4.03629 5.92375 4.43724 6.3247C4.83819 6.72566 5.382 6.95091 5.94904 6.95091H10.4035C10.9851 7.3336 11.6661 7.5375 12.3623 7.53741C14.3358 7.53741 15.9363 5.93666 15.9363 3.96366C15.9363 1.98916 14.3358 0.38916 12.3623 0.38916Z" fill="#313E56"/>
<path d="M11.923 1.64795C10.6705 1.64795 9.6047 2.42945 9.1787 3.53095H6.63945C6.17201 3.53095 5.72371 3.71664 5.39318 4.04717C5.06264 4.37771 4.87695 4.82601 4.87695 5.29345C4.87695 6.26595 5.6662 7.05595 6.63945 7.05595H10.3097C10.7885 7.37175 11.3496 7.5398 11.9232 7.5392C13.55 7.5392 14.8685 6.22045 14.8685 4.59445C14.8685 2.96695 13.5497 1.6492 11.923 1.6492" fill="#C3D8EF"/>
<path d="M11.1177 4.25736C11.1177 4.84386 11.5819 5.31986 12.1542 5.31986C12.7287 5.31986 13.1942 4.84411 13.1942 4.25736C13.1942 3.66961 12.7287 3.19336 12.1542 3.19336C11.5819 3.19336 11.1177 3.66961 11.1177 4.25736Z" fill="#313E56"/>
<path d="M8.63481 11.9896H9.58431V15.9333H8.63481V11.9896ZM7.35681 15.9333H6.31006L7.88081 10.6953H8.92831L7.35681 15.9333Z" fill="#C3D8EF"/>
<path d="M10.6806 15.9333H11.7281L10.1571 10.6953H9.10938L10.6806 15.9333Z" fill="#C3D8EF"/>
<path d="M6.67241 11.3501H11.5469V13.7879H6.67241V11.3501ZM5.08616 10.8151L0.211914 11.8626V6.80762L5.08616 8.37862V10.8151Z" fill="#C3D8EF"/>
<path d="M3.54346 6.80762H15.066V12.5701H3.54346V6.80762Z" fill="#313E56"/>
<path d="M8.31517 7.61768H13.5287V10.2252H8.31517V7.61768ZM4.06592 10.2599H4.45542V11.9894H4.06592V10.2599ZM4.95792 10.2599H5.34717V11.9894H4.95792V10.2599ZM5.85742 10.2599H6.24717V11.9894H5.85742V10.2599Z" fill="#C3D8EF"/>
</g>
<defs>
<clipPath id="clip0_102_46">
<rect width="16" height="16" fill="white"/>
</clipPath>
</defs>
</svg>
