<svg width="16" height="16" viewBox="0 0 16 16" fill="none" xmlns="http://www.w3.org/2000/svg">
<g clip-path="url(#clip0_102_33)">
<path d="M12.2425 3.62471L14.5894 1.30018C14.6891 1.20149 14.8539 1.21771 14.9324 1.33393L15.4738 2.13546C15.5484 2.24587 15.5106 2.39655 15.3928 2.45871L12.5044 3.98171C12.4556 4.00744 12.3991 4.01426 12.3456 4.00084C12.2921 3.98743 12.2454 3.95473 12.2146 3.90902C12.1854 3.86581 12.1722 3.81374 12.1773 3.76183C12.1824 3.70991 12.2054 3.66141 12.2425 3.62471ZM12.6306 5.62093C12.6394 5.66392 12.6638 5.70216 12.699 5.72829C12.7343 5.75443 12.778 5.76662 12.8217 5.76252L15.4086 5.52102C15.4335 5.51869 15.4576 5.51114 15.4794 5.49886C15.5012 5.48657 15.5202 5.46984 15.5351 5.44974C15.55 5.42965 15.5605 5.40664 15.5659 5.38221C15.5713 5.35779 15.5715 5.3325 15.5665 5.30799L15.4122 4.55396C15.3898 4.44465 15.2735 4.38258 15.1703 4.42487L12.7377 5.42037C12.6993 5.43609 12.6675 5.46473 12.648 5.50135C12.6285 5.53797 12.6223 5.58026 12.6306 5.62093ZM10.6991 2.8758C10.7357 2.89997 10.78 2.90977 10.8234 2.90332C10.8668 2.89687 10.9063 2.87463 10.9343 2.84087L12.5928 0.840865C12.6087 0.821604 12.6205 0.799196 12.6272 0.775099C12.6339 0.751003 12.6355 0.725759 12.6318 0.701012C12.6281 0.676265 12.6193 0.65257 12.6058 0.631471C12.5924 0.610371 12.5747 0.592341 12.5538 0.578553L11.9115 0.154522C11.8184 0.0930528 11.6923 0.131365 11.6492 0.234303L10.633 2.65833C10.6169 2.69661 10.6148 2.73928 10.6268 2.77899C10.6389 2.81869 10.6645 2.85293 10.6991 2.8758Z" fill="#F1CD04"/>
<path d="M6.82509 14.9946L6.32546 15.2868C5.91934 15.5243 5.39759 15.3876 5.16009 14.9815L3.8354 12.7163C3.5979 12.3102 3.73459 11.7884 4.14071 11.5509L4.64034 11.2587C5.04646 11.0212 5.56821 11.1579 5.80571 11.5641L7.1304 13.8293C7.36793 14.2354 7.23121 14.7571 6.82509 14.9946Z" fill="#313E56"/>
<path d="M3.76259 12.7717L8.60356 10.1361L5.29424 4.95459L0.918276 8.20562C0.890058 8.22365 -0.292692 9.30584 1.00621 11.3396C2.30512 13.3734 3.76259 12.7717 3.76259 12.7717Z" fill="#C3D8EF"/>
<path d="M11.329 4.75705C12.777 7.02417 13.6542 9.48023 13.0484 9.86711C12.4426 10.254 10.5833 8.42523 9.1353 6.15808C7.68733 3.89092 6.81011 1.43492 7.41586 1.04802C8.02161 0.661109 9.88102 2.48989 11.329 4.75705Z" fill="#313E56"/>
<path d="M10.6475 7.90329C11.1494 7.58275 11.0056 6.46087 10.3264 5.39749C9.64721 4.33411 8.68979 3.73191 8.18795 4.05244C7.68612 4.37297 7.8299 5.49485 8.50909 6.55824C9.18829 7.62162 10.1457 8.22382 10.6475 7.90329Z" fill="#C3D8EF"/>
<path d="M13.022 9.88407C12.4929 10.222 10.6956 8.35357 9.24763 6.08641C7.79967 3.81926 6.86029 1.40291 7.38942 1.06498C7.41989 1.04551 7.45407 1.03266 7.49142 1.02557C7.24179 1.01985 6.99723 1.15004 6.85251 1.42679C6.21476 2.64641 4.58717 5.35235 4.58717 5.35235C4.58717 5.35235 3.77951 6.43985 5.19929 8.66282C6.61907 10.8858 7.98979 10.6076 7.98979 10.6076C7.98979 10.6076 11.1036 10.2895 12.4718 10.2242C12.7957 10.2087 13.0213 10.0289 13.115 9.78623C13.0901 9.82716 13.0594 9.8602 13.022 9.88407Z" fill="#C3D8EF"/>
<path d="M1.653 9.63042C1.579 9.63052 1.50617 9.61195 1.44126 9.57641C1.37634 9.54088 1.32145 9.48953 1.28166 9.42714C1.15082 9.22226 1.21082 8.95014 1.41569 8.81929L3.22541 7.66348C3.43025 7.53267 3.70241 7.59264 3.83325 7.79751C3.9641 8.00239 3.9041 8.27451 3.69922 8.40536L1.8895 9.56117C1.81893 9.60644 1.73684 9.63047 1.653 9.63042Z" fill="#313E56"/>
</g>
<defs>
<clipPath id="clip0_102_33">
<rect width="16" height="16" fill="white"/>
</clipPath>
</defs>
</svg>
