<svg width="16" height="16" viewBox="0 0 16 16" fill="none" xmlns="http://www.w3.org/2000/svg">
<g clip-path="url(#clip0_104_68)">
<path d="M2.8375 0.200195H13.175C14.7375 0.200195 16.0125 1.4627 16.0125 3.0377V12.9752C16.0125 14.5377 14.75 15.8127 13.175 15.8127H2.8375C1.2625 15.8002 0 14.5377 0 12.9627V3.0377C0 1.4627 1.2625 0.200195 2.8375 0.200195Z" fill="#330000"/>
<path d="M7.73762 9.5376H5.25012L4.75012 11.1001C4.73762 11.1626 4.68762 11.2001 4.62512 11.1876H3.37512C3.30012 11.1876 3.28762 11.1501 3.30012 11.0626L5.45012 4.8876C5.47512 4.8251 5.48762 4.7501 5.51262 4.6626C5.53762 4.5251 5.55012 4.3751 5.55012 4.2251C5.53762 4.1876 5.57512 4.1626 5.60012 4.1501H7.32512C7.37512 4.1501 7.40012 4.1751 7.41262 4.2001L9.85012 11.0626C9.87512 11.1376 9.85012 11.1751 9.78762 11.1751H8.38762C8.33762 11.1876 8.30012 11.1501 8.27512 11.1001L7.73762 9.5376ZM5.63762 8.1751H7.32512C7.28762 8.0376 7.23762 7.8626 7.17512 7.7001C7.11262 7.5251 7.05012 7.3251 7.00012 7.1251C6.93762 6.9126 6.87512 6.7126 6.81262 6.5126C6.75012 6.3001 6.68762 6.1126 6.63762 5.9251C6.58762 5.7376 6.53762 5.5626 6.48762 5.4001H6.47512C6.41262 5.6876 6.33762 5.9751 6.25012 6.2626C6.15012 6.5876 6.05012 6.9126 5.93762 7.2501C5.83762 7.5876 5.73762 7.9001 5.63762 8.1751ZM11.3376 5.3376C11.1126 5.3501 10.9001 5.2626 10.7501 5.1001C10.6001 4.9376 10.5126 4.7126 10.5251 4.4876C10.5126 4.2626 10.6001 4.0501 10.7626 3.9001C10.9251 3.7501 11.1376 3.6626 11.3501 3.6626C11.6126 3.6626 11.8126 3.7376 11.9626 3.9001C12.1126 4.0626 12.1876 4.2751 12.1876 4.4876C12.2001 4.7126 12.1126 4.9376 11.9501 5.1001C11.7876 5.2626 11.5626 5.3501 11.3376 5.3376ZM10.5876 11.1251V5.9876C10.5876 5.9251 10.6126 5.9001 10.6751 5.9001H12.0001C12.0626 5.9001 12.0876 5.9376 12.0876 5.9876V11.1251C12.0876 11.2001 12.0626 11.2376 12.0001 11.2376H10.6876C10.6251 11.2251 10.5876 11.1876 10.5876 11.1251Z" fill="#FF9A00"/>
</g>
<defs>
<clipPath id="clip0_104_68">
<rect width="16" height="16" fill="white"/>
</clipPath>
</defs>
</svg>
