<svg width="30" height="29" viewBox="0 0 30 29" fill="none" xmlns="http://www.w3.org/2000/svg">
<g clip-path="url(#clip0_104_74)">
<path d="M25.0195 0H4.98047C2.22983 0 0 2.20724 0 4.93V24.0236C0 26.7464 2.22983 28.9536 4.98047 28.9536H25.0195C27.7702 28.9536 30 26.7464 30 24.0236V4.93C30 2.20724 27.7702 0 25.0195 0Z" fill="#49021F"/>
<path d="M10.8949 7.5745V20.2642C10.8949 20.3971 10.8345 20.4635 10.7137 20.4635H8.27858C8.17108 20.4635 8.11744 20.3971 8.11768 20.2642V7.5745C8.11768 7.46832 8.17803 7.41519 8.29873 7.41512H10.7339C10.7544 7.41225 10.7752 7.41383 10.795 7.41975C10.8148 7.42566 10.8331 7.43578 10.8485 7.4494C10.864 7.46301 10.8762 7.47979 10.8845 7.49857C10.8927 7.51735 10.8967 7.53768 10.8962 7.55814L10.8949 7.5745ZM18.2292 20.6614L18.0996 20.6627C17.1733 20.6767 16.2555 20.4861 15.4129 20.1049C14.628 19.7453 13.9719 19.1583 13.5313 18.4215C13.0861 17.6897 12.8581 16.7775 12.8474 15.6851L12.847 15.6027C12.8395 14.6884 13.0755 13.7883 13.5314 12.9931C13.9883 12.2048 14.6548 11.5556 15.4583 11.1159L15.5237 11.0806C16.3956 10.6025 17.4488 10.3635 18.6833 10.3635L18.7093 10.3636L18.7671 10.3649L18.8325 10.3674L18.9055 10.3711L18.986 10.3761L19.074 10.3825L19.2729 10.3986L19.3272 10.4033V6.479C19.3272 6.38612 19.3675 6.3396 19.448 6.33945H21.9838C22.0002 6.33712 22.0169 6.33861 22.0326 6.34379C22.0483 6.34897 22.0626 6.3577 22.0743 6.3693C22.086 6.38089 22.0949 6.39503 22.1001 6.41059C22.1053 6.42615 22.1068 6.4427 22.1045 6.45893V18.2323C22.1053 18.4783 22.1153 18.7242 22.1347 18.9694L22.1537 19.2262L22.1705 19.4653L22.185 19.6865C22.1875 19.7279 22.1773 19.7691 22.1557 19.8046C22.1342 19.8402 22.1023 19.8685 22.0643 19.8858C21.4101 20.1558 20.7287 20.3561 20.0317 20.4833C19.4369 20.5921 18.834 20.6516 18.2293 20.6614M19.3274 18.1924V12.754C19.2186 12.7248 19.1075 12.7049 18.9954 12.6943C18.8583 12.6806 18.7206 12.6739 18.5828 12.6743C18.0943 12.6696 17.6117 12.7787 17.174 12.9931C16.7477 13.203 16.3837 13.5188 16.1175 13.9095C15.8423 14.3078 15.7048 14.8324 15.7049 15.4833C15.6951 15.9175 15.7668 16.3497 15.9162 16.7581C16.0378 17.0872 16.2301 17.3863 16.4797 17.6347C16.7187 17.8633 17.0081 18.0338 17.325 18.1327C17.6597 18.24 18.0096 18.2938 18.3614 18.2922C18.5491 18.2922 18.7235 18.2855 18.8846 18.2721C19.0131 18.2626 19.1405 18.2416 19.2653 18.2095L19.3274 18.1924Z" fill="#FF3366"/>
</g>
<defs>
<clipPath id="clip0_104_74">
<rect width="30" height="29" fill="white"/>
</clipPath>
</defs>
</svg>
