<svg width="16" height="16" viewBox="0 0 16 16" fill="none" xmlns="http://www.w3.org/2000/svg">
<g clip-path="url(#clip0_104_71)">
<path d="M2.83337 0.200195H13.1666C14.7334 0.200195 16 1.46682 16 3.03357V12.9668C16 14.5336 14.7334 15.8002 13.1666 15.8002H2.83337C1.26662 15.8002 0 14.5336 0 12.9668V3.03357C0 1.46682 1.26662 0.200195 2.83337 0.200195Z" fill="#001E36"/>
<path d="M5.73347 4.1665C5.53347 4.1665 5.33347 4.1665 5.12685 4.17325C4.9201 4.17988 4.72672 4.17988 4.54672 4.18663C4.36672 4.19325 4.2001 4.19325 4.0401 4.19988C3.88672 4.2065 3.7801 4.2065 3.66672 4.2065C3.6201 4.2065 3.6001 4.23313 3.6001 4.27988V11.1399C3.6001 11.1999 3.62672 11.2266 3.6801 11.2266H4.97347C5.0201 11.2199 5.05347 11.1799 5.04672 11.1333V8.99325C5.17335 8.99325 5.26672 8.99325 5.33347 8.99988C5.4001 9.0065 5.50672 9.0065 5.66672 9.0065C6.21347 9.0065 6.71347 8.9465 7.16672 8.77988C7.6001 8.61988 7.97347 8.33988 8.2401 7.9665C8.50676 7.59317 8.6401 7.11984 8.6401 6.5465C8.6401 6.2465 8.58685 5.95988 8.48685 5.67988C8.38089 5.39462 8.21489 5.13544 8.0001 4.91988C7.74658 4.67358 7.4414 4.48682 7.10672 4.37313C6.73335 4.23313 6.2801 4.1665 5.73347 4.1665ZM5.88222 5.47963C6.11972 5.48413 6.35097 5.52563 6.56672 5.61313C6.7601 5.6865 6.9201 5.81988 7.03347 5.99313C7.1398 6.17243 7.19299 6.37826 7.18685 6.58663C7.18685 6.87988 7.1201 7.10663 6.9801 7.27325C6.83335 7.43988 6.64672 7.56663 6.43347 7.62663C6.18672 7.70663 5.92672 7.7465 5.66672 7.7465H5.31335C5.23335 7.7465 5.14685 7.73988 5.05347 7.73325V5.49325C5.1001 5.4865 5.19347 5.47988 5.32685 5.48663C5.45347 5.47988 5.60672 5.47988 5.7801 5.47988C5.81426 5.47905 5.84831 5.47896 5.88222 5.47963ZM11.4735 5.82C11.0001 5.82 10.6067 5.89325 10.2935 6.05325C10.0068 6.18663 9.7601 6.39988 9.59347 6.6665C9.44685 6.91325 9.36672 7.1865 9.36672 7.47325C9.36102 7.7091 9.41371 7.94269 9.5201 8.15325C9.64478 8.37746 9.8179 8.57104 10.0268 8.71988C10.3201 8.92046 10.6384 9.08183 10.9735 9.19988C11.3001 9.3265 11.5201 9.4265 11.6268 9.51313C11.7335 9.59988 11.7868 9.6865 11.7868 9.77988C11.7868 9.89988 11.7135 10.0133 11.6068 10.0599C11.4868 10.1199 11.3068 10.1533 11.0535 10.1533C10.7868 10.1533 10.5201 10.1199 10.2667 10.0533C9.9758 9.98828 9.69686 9.87806 9.4401 9.72663C9.4201 9.71325 9.4001 9.70663 9.3801 9.72C9.3601 9.73325 9.35347 9.75988 9.35347 9.77988V10.9399C9.34685 10.9933 9.3801 11.0399 9.42685 11.0665C9.64304 11.1675 9.87171 11.2393 10.1068 11.2799C10.4068 11.3399 10.7067 11.3665 11.0133 11.3665C11.4933 11.3665 11.8935 11.2933 12.2201 11.1533C12.5201 11.0333 12.7801 10.8266 12.9667 10.5599C13.1415 10.2976 13.2322 9.98836 13.2267 9.67325C13.2333 9.43522 13.1806 9.19928 13.0735 8.98663C12.9467 8.75988 12.7667 8.57325 12.5467 8.43325C12.2249 8.23114 11.8803 8.06776 11.5201 7.9465C11.3593 7.87993 11.2013 7.80653 11.0467 7.7265C10.9601 7.67988 10.8801 7.61988 10.8201 7.5465C10.7801 7.49313 10.7535 7.43325 10.7535 7.37325C10.7535 7.31325 10.7735 7.24663 10.8067 7.19325C10.8535 7.12663 10.9267 7.07988 11.0133 7.05988C11.1401 7.02663 11.2801 7.0065 11.4133 7.01313C11.6667 7.01313 11.9133 7.0465 12.1601 7.09988C12.3868 7.1465 12.6001 7.21988 12.8001 7.32663C12.8267 7.33988 12.8601 7.33988 12.9201 7.32663C12.9305 7.31891 12.939 7.30884 12.9448 7.29724C12.9506 7.28565 12.9535 7.27285 12.9535 7.25988V6.17325C12.9535 6.1465 12.9467 6.11988 12.9401 6.09325C12.9267 6.06663 12.9001 6.03988 12.8735 6.03325C12.6896 5.9581 12.4969 5.90657 12.3001 5.87988C12.0264 5.84002 11.7501 5.82009 11.4735 5.82Z" fill="#31A8FF"/>
</g>
<defs>
<clipPath id="clip0_104_71">
<rect width="16" height="16" fill="white"/>
</clipPath>
</defs>
</svg>
