<svg width="16" height="16" viewBox="0 0 16 16" fill="none" xmlns="http://www.w3.org/2000/svg">
<path d="M0 7.99988C0 10.324 3.58175 12.2083 8 12.2083C12.4183 12.2083 16 10.324 16 7.99988C16 5.67575 12.4181 3.7915 8 3.7915C3.58187 3.7915 0 5.67575 0 7.99988Z" fill="url(#paint0_radial_104_112)"/>
<path d="M8 11.8958C12.2456 11.8958 15.6875 10.1514 15.6875 7.99988C15.6875 5.84813 12.2456 4.104 8 4.104C3.75437 4.104 0.3125 5.84813 0.3125 7.99988C0.3125 10.1514 3.75437 11.8958 8 11.8958Z" fill="#777BB3"/>
<path d="M4.34657 8.48323C4.69569 8.48323 4.95619 8.41886 5.12107 8.29198C5.28432 8.16623 5.39694 7.94861 5.45607 7.64511C5.51107 7.36136 5.49007 7.16336 5.39357 7.05636C5.29507 6.94711 5.08194 6.89173 4.76019 6.89173H4.20219L3.89307 8.48323H4.34657ZM2.52169 10.4436C2.50889 10.4436 2.49625 10.4407 2.48468 10.4353C2.47311 10.4298 2.46289 10.4218 2.45477 10.4119C2.44664 10.402 2.44081 10.3905 2.43768 10.378C2.43456 10.3656 2.43422 10.3527 2.43669 10.3401L3.25632 6.12286C3.26019 6.10314 3.27078 6.08538 3.28628 6.0726C3.30177 6.05981 3.32122 6.05279 3.34132 6.05273H5.10807C5.66332 6.05273 6.07657 6.20348 6.33644 6.50086C6.59744 6.79961 6.67819 7.21761 6.57607 7.74273C6.53444 7.95661 6.46294 8.15523 6.36357 8.33323C6.26015 8.51634 6.12816 8.68176 5.97257 8.82323C5.78119 9.00223 5.56457 9.13223 5.32919 9.20861C5.09769 9.28411 4.80019 9.32236 4.44544 9.32236H3.72994L3.52569 10.3734C3.52183 10.3931 3.51122 10.411 3.49567 10.4238C3.48012 10.4366 3.46059 10.4436 3.44044 10.4436H2.52169Z" fill="black"/>
<path d="M4.27378 6.97845H4.76016C5.14853 6.97845 5.28341 7.0637 5.32928 7.11457C5.40516 7.19882 5.41966 7.3767 5.37066 7.62857C5.31578 7.9107 5.21403 8.11082 5.06816 8.22307C4.91891 8.33807 4.67591 8.39632 4.34653 8.39632H3.99828L4.27378 6.97845ZM5.10803 5.96595H3.34141C3.30112 5.96595 3.26209 5.97995 3.23099 6.00556C3.19988 6.03117 3.17865 6.06678 3.17091 6.10632L2.35128 10.3237C2.34644 10.3488 2.34721 10.3747 2.35353 10.3995C2.35985 10.4243 2.37156 10.4474 2.38784 10.4671C2.40412 10.4868 2.42455 10.5027 2.44768 10.5137C2.47081 10.5246 2.49607 10.5303 2.52166 10.5303H3.44041C3.48069 10.5303 3.51971 10.5162 3.55079 10.4906C3.58187 10.465 3.60307 10.4294 3.61078 10.3898L3.80141 9.40907H4.44528C4.80928 9.40907 5.11578 9.36932 5.35616 9.29107C5.60328 9.21082 5.83066 9.0747 6.03191 8.88645C6.19398 8.73888 6.3315 8.56643 6.43928 8.37557C6.54316 8.1897 6.61791 7.9822 6.66116 7.7592C6.76866 7.20632 6.68128 6.7637 6.40166 6.4437C6.12466 6.12657 5.68941 5.96582 5.10803 5.96582V5.96595ZM3.78766 8.56982H4.34653C4.71695 8.5699 4.99278 8.50011 5.17403 8.36045C5.35528 8.22095 5.4777 7.98799 5.54128 7.66157C5.60195 7.34807 5.57424 7.1269 5.45816 6.99807C5.34191 6.86924 5.10924 6.80482 4.76016 6.80482H4.13066L3.78766 8.56982ZM5.10816 6.1392C5.63966 6.1392 6.02728 6.2787 6.27103 6.5577C6.51478 6.8367 6.58812 7.22611 6.49103 7.72595C6.45087 7.93195 6.38316 8.1202 6.28791 8.2907C6.19249 8.46136 6.06787 8.61749 5.91403 8.75907C5.7307 8.93074 5.52687 9.05303 5.30253 9.12595C5.07828 9.19895 4.79257 9.2354 4.44541 9.23532H3.65841L3.44053 10.3566H2.52178L3.34153 6.1392H5.10816Z" fill="white"/>
<path d="M8.68226 9.32203C8.66945 9.32204 8.6568 9.31922 8.6452 9.31377C8.63361 9.30831 8.62338 9.30035 8.61522 9.29047C8.60707 9.28059 8.60121 9.26902 8.59806 9.2566C8.59492 9.24419 8.59456 9.23123 8.59701 9.21865L8.95951 7.35265C8.99414 7.17515 8.98564 7.0479 8.93576 6.9939C8.90514 6.96103 8.81339 6.9059 8.54201 6.9059H7.88501L7.42926 9.2519C7.42535 9.27166 7.4147 9.28944 7.39912 9.30221C7.38355 9.31498 7.36402 9.32194 7.34389 9.3219H6.43264C6.41983 9.32191 6.40719 9.31909 6.39561 9.31364C6.38402 9.30819 6.37378 9.30025 6.36563 9.29039C6.35747 9.28052 6.35159 9.26898 6.34842 9.25658C6.34524 9.24417 6.34485 9.23122 6.34726 9.21865L7.16701 5.00128C7.17089 4.98152 7.18152 4.96373 7.19707 4.95093C7.21262 4.93814 7.23213 4.93115 7.25226 4.93115H8.16351C8.17631 4.93114 8.18896 4.93396 8.20054 4.93941C8.21212 4.94486 8.22236 4.9528 8.23052 4.96267C8.23868 4.97253 8.24455 4.98408 8.24773 4.99648C8.2509 5.00888 8.2513 5.02183 8.24889 5.0344L8.05114 6.0524H8.75776C9.29614 6.0524 9.66114 6.14715 9.87376 6.34253C10.0904 6.54165 10.1581 6.86003 10.0748 7.28915L9.69339 9.2519C9.68948 9.27164 9.67884 9.2894 9.6633 9.30217C9.64775 9.31493 9.62825 9.32191 9.60814 9.3219L8.68226 9.32203Z" fill="black"/>
<path d="M8.16394 4.84424H7.25257C7.21226 4.84425 7.17321 4.85827 7.14211 4.8839C7.111 4.90953 7.08978 4.94518 7.08206 4.98474L6.26244 9.20199C6.25758 9.22712 6.25833 9.25301 6.26464 9.27782C6.27095 9.30263 6.28266 9.32573 6.29894 9.34549C6.31522 9.36524 6.33566 9.38115 6.3588 9.39209C6.38195 9.40302 6.40722 9.40871 6.43281 9.40874H7.34419C7.38449 9.40873 7.42354 9.39471 7.45465 9.36908C7.48575 9.34345 7.50698 9.3078 7.51469 9.26824L7.95682 6.99261H8.54206C8.81306 6.99261 8.87006 7.05049 8.87219 7.05311C8.88869 7.07061 8.91032 7.15249 8.87457 7.33611L8.51207 9.20199C8.5072 9.22713 8.50796 9.25303 8.51427 9.27785C8.52059 9.30267 8.53231 9.32578 8.5486 9.34553C8.5649 9.36529 8.58535 9.3812 8.60851 9.39213C8.63167 9.40305 8.65696 9.40873 8.68256 9.40874H9.60856C9.64885 9.4087 9.68787 9.39467 9.71894 9.36904C9.75002 9.34341 9.77123 9.30778 9.77894 9.26824L10.1603 7.30574C10.2497 6.84499 10.1732 6.49949 9.93281 6.27861C9.70331 6.06786 9.31907 5.96549 8.75807 5.96549H8.15681L8.33444 5.05111C8.33932 5.02596 8.33859 5.00004 8.33228 4.97521C8.32597 4.95038 8.31425 4.92725 8.29796 4.90748C8.28166 4.88771 8.2612 4.87179 8.23803 4.86086C8.21486 4.84992 8.18956 4.84425 8.16394 4.84424ZM8.16394 5.01799L7.94607 6.13899H8.75807C9.26898 6.13899 9.62136 6.22815 9.81519 6.40649C10.0092 6.58465 10.0674 6.8734 9.98994 7.27274L9.60844 9.23511H8.68256L9.04519 7.36911C9.08644 7.15686 9.07123 7.01211 8.99957 6.93486C8.9279 6.8577 8.77548 6.81911 8.54231 6.81911H7.81369L7.34419 9.23499H6.43269L7.25244 5.01761H8.16394V5.01799Z" fill="white"/>
<path d="M11.5169 8.48323C11.866 8.48323 12.1266 8.41886 12.2916 8.29198C12.4546 8.16623 12.5674 7.94861 12.6265 7.64511C12.6815 7.36136 12.6606 7.16336 12.564 7.05636C12.4655 6.94711 12.2524 6.89173 11.9306 6.89173H11.3727L11.0634 8.48323H11.5169ZM9.69235 10.4436C9.67953 10.4436 9.66686 10.4408 9.65526 10.4353C9.64366 10.4299 9.63341 10.4219 9.62526 10.412C9.61711 10.4021 9.61125 10.3905 9.60811 10.3781C9.60497 10.3657 9.60463 10.3527 9.6071 10.3401L10.4267 6.12286C10.4306 6.1031 10.4412 6.08531 10.4568 6.07252C10.4723 6.05973 10.4918 6.05273 10.512 6.05273H12.2786C12.8339 6.05273 13.2471 6.20348 13.5069 6.50086C13.768 6.79961 13.8486 7.21761 13.7465 7.74273C13.7074 7.94957 13.6357 8.14889 13.5341 8.33323C13.4307 8.51634 13.2987 8.68176 13.1431 8.82323C12.9519 9.00223 12.735 9.13223 12.4997 9.20861C12.2682 9.28411 11.9707 9.32236 11.6159 9.32236H10.9005L10.6964 10.3734C10.6925 10.3932 10.6819 10.411 10.6663 10.4238C10.6507 10.4366 10.6311 10.4436 10.611 10.4436H9.69235Z" fill="black"/>
<path d="M11.4442 6.97845H11.9306C12.3189 6.97845 12.4538 7.0637 12.4996 7.11457C12.5758 7.19882 12.5901 7.3767 12.5412 7.62857C12.4862 7.9107 12.3844 8.11082 12.2386 8.22307C12.0892 8.33807 11.8462 8.39632 11.5169 8.39632H11.1687L11.4442 6.97845ZM12.2784 5.96595H10.5118C10.4716 5.96598 10.4325 5.97999 10.4015 6.0056C10.3704 6.0312 10.3492 6.0668 10.3414 6.10632L9.52169 10.3237C9.51685 10.3488 9.51762 10.3747 9.52395 10.3995C9.53027 10.4243 9.542 10.4474 9.55829 10.4672C9.57458 10.4869 9.59503 10.5028 9.61818 10.5137C9.64132 10.5246 9.6666 10.5303 9.69219 10.5303H10.6109C10.6512 10.5303 10.6902 10.5162 10.7213 10.4906C10.7524 10.465 10.7736 10.4294 10.7813 10.3898L10.9719 9.40907H11.6157C11.9796 9.40907 12.2862 9.36932 12.5264 9.29107C12.7737 9.21082 13.0011 9.0747 13.2024 8.88632C13.3645 8.73879 13.5019 8.56637 13.6097 8.37557C13.7137 8.1897 13.7882 7.9822 13.8316 7.7592C13.9391 7.20632 13.8518 6.7637 13.5721 6.4437C13.2951 6.12657 12.8599 5.96582 12.2783 5.96582L12.2784 5.96595ZM10.9581 8.56982H11.5168C11.8872 8.5699 12.1632 8.50011 12.3446 8.36045C12.5258 8.22095 12.6482 7.98799 12.7116 7.66157C12.7725 7.34807 12.7448 7.1269 12.6284 6.99807C12.5121 6.86924 12.2795 6.80482 11.9306 6.80482H11.3012L10.9581 8.56982ZM12.2784 6.1392C12.8099 6.1392 13.1976 6.2787 13.4413 6.5577C13.6851 6.8367 13.7584 7.22611 13.6612 7.72595C13.6212 7.93195 13.5535 8.1202 13.4582 8.2907C13.3629 8.46136 13.2382 8.61749 13.0842 8.75907C12.9009 8.93074 12.697 9.05303 12.4727 9.12595C12.2485 9.19895 11.9629 9.2354 11.6157 9.23532H10.8288L10.6107 10.3566H9.69194L10.5117 6.1392H12.2784Z" fill="white"/>
<defs>
<radialGradient id="paint0_radial_104_112" cx="0" cy="0" r="1" gradientUnits="userSpaceOnUse" gradientTransform="translate(4.80325 5.271) scale(10.5052)">
<stop stop-color="#AEB2D5"/>
<stop offset="0.3" stop-color="#AEB2D5"/>
<stop offset="0.75" stop-color="#484C89"/>
<stop offset="1" stop-color="#484C89"/>
</radialGradient>
</defs>
</svg>
