<svg width="19" height="18" viewBox="0 0 19 18" fill="none" xmlns="http://www.w3.org/2000/svg">
<g clip-path="url(#clip0_104_83)">
<path d="M15.8457 0H3.1543C1.41223 0 0 1.37001 0 3.06V14.9112C0 16.6012 1.41223 17.9712 3.1543 17.9712H15.8457C17.5878 17.9712 19 16.6012 19 14.9112V3.06C19 1.37001 17.5878 0 15.8457 0Z" fill="#00005B"/>
<path d="M7.63287 10.7521H4.68854L4.08945 12.5608C4.08176 12.5918 4.0638 12.6195 4.0383 12.6396C4.01281 12.6598 3.98121 12.6712 3.94836 12.6722L2.44528 12.6721C2.36017 12.6721 2.33044 12.6268 2.35607 12.536L4.90526 5.4434L4.93071 5.36888L4.93918 5.34339L4.95625 5.29011C4.96471 5.2626 4.97317 5.23344 4.9817 5.20184C5.0151 5.03688 5.03217 4.8692 5.03269 4.70108C5.03097 4.68932 5.03209 4.67734 5.03596 4.66608C5.03984 4.65481 5.04636 4.64458 5.05501 4.63619C5.06367 4.62779 5.07422 4.62146 5.08583 4.61771C5.09743 4.61395 5.10979 4.61286 5.1219 4.61453H7.14852C7.20789 4.61453 7.24189 4.63515 7.2505 4.67638L10.1438 12.5485C10.1692 12.631 10.1438 12.6722 10.0673 12.6721H8.41031C8.38187 12.6751 8.35326 12.668 8.32982 12.6521C8.30637 12.6362 8.28969 12.6125 8.28288 12.5856L7.63287 10.7521ZM5.14743 9.22707H7.16128L7.13256 9.13512L7.08647 8.98954L7.01901 8.78103L6.8895 8.3874L6.76614 8.00912L6.53666 7.30431C6.47326 7.10975 6.41239 6.91442 6.35408 6.71837L6.28892 6.49546L6.21856 6.25116L6.15428 6.02458H6.14152C6.07772 6.32137 6.00006 6.61519 5.90877 6.90514L5.82268 7.1732L5.61561 7.8212L5.51066 8.15132C5.49171 8.21093 5.47278 8.26988 5.45388 8.32815L5.39748 8.5008L5.34137 8.66943L5.28555 8.83388L5.23004 8.99422C5.20238 9.07342 5.17485 9.15103 5.14743 9.22707ZM14.8343 10.0482H12.3234C12.3541 10.2892 12.4366 10.5212 12.5656 10.7293C12.7081 10.9355 12.9097 11.0966 13.1455 11.193C13.465 11.3272 13.8107 11.393 14.1588 11.3857C14.435 11.3805 14.7101 11.3512 14.9809 11.2981C15.2231 11.2665 15.4604 11.2065 15.6877 11.1194C15.7302 11.0866 15.7515 11.1072 15.7515 11.1812V12.3559C15.7536 12.3879 15.747 12.4199 15.7323 12.4486C15.7177 12.4711 15.6981 12.4901 15.675 12.5043C15.4228 12.6126 15.1575 12.6893 14.8853 12.7325C14.5156 12.7999 14.1398 12.8309 13.7636 12.8252C13.1791 12.8252 12.6864 12.7401 12.2854 12.57L12.2468 12.5532C11.8614 12.3885 11.521 12.1387 11.2527 11.8237C11.0022 11.5269 10.8158 11.1841 10.7046 10.816C10.5947 10.4525 10.5389 10.0757 10.5391 9.69694C10.5378 9.28335 10.6045 8.87222 10.7366 8.47899C10.8638 8.09542 11.0649 7.73878 11.3293 7.428C11.5901 7.12091 11.9161 6.87206 12.2852 6.69843C12.659 6.52131 13.1009 6.45773 13.6107 6.45773C14.0336 6.44746 14.4535 6.52768 14.8408 6.69267C15.1664 6.82736 15.453 7.03735 15.6756 7.30431C15.8845 7.56567 16.0441 7.86077 16.1472 8.17601C16.2475 8.4798 16.2991 8.79675 16.3001 9.11576C16.3001 9.2972 16.2938 9.46208 16.2811 9.6104L16.2697 9.7374L16.2578 9.85793L16.2508 9.91899L16.2491 9.93188C16.2458 9.95913 16.2323 9.98425 16.2112 10.0025C16.1901 10.0207 16.1628 10.0308 16.1345 10.0308L16.0995 10.0315L16.056 10.0337L16.022 10.0361L15.9428 10.0426L15.8732 10.0493C15.8542 10.0512 15.8345 10.053 15.8142 10.0547L15.751 10.0595L15.6835 10.0639L15.6119 10.0675L15.5361 10.0705L15.4965 10.0718L15.4143 10.074C15.3331 10.0759 15.2498 10.0711 15.1644 10.065L15.0348 10.0558C14.9681 10.0511 14.9012 10.0485 14.8343 10.0482ZM12.3235 8.92172H14.0592L14.207 8.92078L14.3075 8.91941L14.3726 8.91797L14.4456 8.91552C14.511 8.90919 14.5741 8.8889 14.6304 8.85612V8.78196C14.6279 8.68525 14.6108 8.58943 14.5795 8.49756C14.5108 8.28661 14.3725 8.10338 14.186 7.97604C13.9995 7.8487 13.775 7.78428 13.5471 7.79268C13.3326 7.78012 13.119 7.82837 12.9323 7.93157C12.7455 8.03477 12.5938 8.18845 12.4955 8.37387C12.4082 8.54634 12.3501 8.73128 12.3235 8.92172Z" fill="#9999FF"/>
</g>
<defs>
<clipPath id="clip0_104_83">
<rect width="19" height="18" fill="white"/>
</clipPath>
</defs>
</svg>
