<svg width="16" height="16" viewBox="0 0 16 16" fill="none" xmlns="http://www.w3.org/2000/svg">
<path d="M8.2915 8.75377C8.3215 8.22352 8.58238 7.75539 8.97713 7.42452C9.36388 7.09927 9.88313 6.90039 10.4533 6.90039C11.0204 6.90039 11.5395 7.09914 11.9258 7.42452C12.3211 7.75539 12.5804 8.22352 12.6114 8.75377C12.6414 9.29752 12.421 9.80502 12.0358 10.1809C11.641 10.5621 11.0824 10.803 10.4533 10.803C9.82363 10.803 9.2625 10.5636 8.87025 10.1809C8.4835 9.80514 8.26363 9.30039 8.2945 8.75627L8.2915 8.75377Z" fill="#235785"/>
<path d="M4.90566 9.87514C4.90916 10.0826 4.97616 10.4864 5.07566 10.8006C5.28591 11.4676 5.64279 12.0848 6.13691 12.6255C6.64466 13.1836 7.27116 13.6324 7.99316 13.9518C8.75229 14.2855 9.57628 14.4564 10.4313 14.4564C11.2863 14.4553 12.1103 14.2814 12.8693 13.9436C13.5913 13.6209 14.218 13.1726 14.7255 12.6115C15.2223 12.0648 15.578 11.4481 15.7869 10.7806C15.8915 10.4491 15.9584 10.1068 15.9863 9.76027C16.0123 9.42402 16.0013 9.08464 15.9534 8.74527C15.8598 8.09132 15.6291 7.46454 15.2763 6.90602C14.9545 6.38727 14.5368 5.93602 14.04 5.5544L14.0415 5.55389L9.04716 1.74065C9.04266 1.73715 9.03866 1.73365 9.03416 1.73065C8.70679 1.4804 8.15366 1.4814 7.79541 1.73165C7.43116 1.98552 7.38916 2.40477 7.71341 2.66865L7.71191 2.66965L9.79716 4.35515L3.44854 4.36152H3.44004C2.91541 4.36202 2.41016 4.7039 2.31129 5.13815C2.20879 5.57827 2.56566 5.94565 3.11279 5.94565L3.11179 5.94765L6.32879 5.94165L0.572535 10.3154C0.565535 10.3209 0.557535 10.3264 0.550535 10.3319C0.00866032 10.7436 -0.166215 11.4306 0.175035 11.8624C0.522285 12.3026 1.25829 12.3056 1.80591 11.8649L4.93816 9.31365C4.93816 9.31365 4.89216 9.65839 4.89616 9.86327L4.90566 9.87514ZM12.9757 11.0275C12.3297 11.681 11.4237 12.0538 10.4473 12.0538C9.46841 12.0553 8.56241 11.689 7.91629 11.036C7.60054 10.7161 7.36916 10.3519 7.22529 9.96214C7.08463 9.57863 7.03038 9.1688 7.06641 8.7619C7.10063 8.36489 7.219 7.97972 7.41366 7.63202C7.60204 7.29277 7.86241 6.98452 8.18116 6.72365C8.81028 6.2164 9.60866 5.93864 10.4437 5.93864C11.2823 5.93764 12.0808 6.21039 12.7099 6.71814C13.0287 6.97752 13.288 7.28427 13.4774 7.62352C13.6725 7.97118 13.7907 8.35664 13.8242 8.75389C13.8597 9.16062 13.8055 9.57019 13.6653 9.95364C13.5219 10.3464 13.29 10.7106 12.9737 11.0305L12.9757 11.0275Z" fill="#E87500"/>
</svg>
