<svg width="16" height="16" viewBox="0 0 16 16" fill="none" xmlns="http://www.w3.org/2000/svg">
<path d="M1 1H15V15H1V1Z" fill="#F5DE19"/>
<path d="M10.4045 11.9377C10.524 12.1798 10.7094 12.3833 10.9393 12.5249C11.1693 12.6664 11.4345 12.7401 11.7045 12.7377C12.2495 12.7377 12.598 12.4652 12.598 12.0877C12.598 11.6377 12.24 11.4767 11.64 11.2142L11.311 11.0732C10.361 10.6687 9.73104 10.1622 9.73104 9.09117C9.73104 8.10467 10.481 7.35317 11.6575 7.35317C12.0384 7.32574 12.4189 7.411 12.7516 7.59834C13.0843 7.78568 13.3545 8.06681 13.5285 8.40667L12.5 9.06417C12.433 8.89567 12.3163 8.75152 12.1655 8.6508C12.0147 8.55008 11.8369 8.49756 11.6555 8.50017C11.5764 8.49225 11.4965 8.5009 11.4209 8.52557C11.3453 8.55023 11.2757 8.59037 11.2165 8.64343C11.1573 8.69649 11.1097 8.76131 11.0769 8.83375C11.0442 8.90619 11.0268 8.98466 11.026 9.06417C11.026 9.45867 11.2705 9.61867 11.835 9.86417L12.164 10.0052C13.282 10.4847 13.914 10.9732 13.914 12.0717C13.914 13.2562 12.9835 13.9052 11.734 13.9052C11.2472 13.9359 10.7619 13.8252 10.3366 13.5865C9.91122 13.3478 9.56393 12.9912 9.33654 12.5597L10.4045 11.9377ZM5.75704 12.0517C5.96354 12.4182 6.15154 12.7282 6.60354 12.7282C7.03554 12.7282 7.30854 12.5592 7.30854 11.9017V7.42817H8.62403V11.9192C8.62403 13.2812 7.82404 13.9012 6.65954 13.9012C6.24791 13.9237 5.83911 13.8211 5.48688 13.6069C5.13464 13.3927 4.85546 13.077 4.68604 12.7012L5.75704 12.0517Z" fill="black"/>
</svg>
