<svg width="16" height="16" viewBox="0 0 16 16" fill="none" xmlns="http://www.w3.org/2000/svg">
<g clip-path="url(#clip0_104_121)">
<path d="M12.25 0H3.75C1.67893 0 0 1.67893 0 3.75V12.25C0 14.3211 1.67893 16 3.75 16H12.25C14.3211 16 16 14.3211 16 12.25V3.75C16 1.67893 14.3211 0 12.25 0Z" fill="#0073AA"/>
<path d="M2.63818 7.99943C2.63818 10.1216 3.8715 11.9556 5.65987 12.8247L3.10237 5.8175C2.79587 6.50405 2.63769 7.24756 2.63818 7.99943ZM11.6191 7.72887C11.6191 7.06631 11.3811 6.60743 11.1769 6.25025C10.9051 5.80862 10.6504 5.43462 10.6504 4.993C10.6504 4.50012 11.0242 4.04137 11.5507 4.04137C11.5745 4.04137 11.597 4.04431 11.6202 4.04562C10.6663 3.17175 9.3955 2.63818 7.99962 2.63818C6.12662 2.63818 4.47868 3.59918 3.52006 5.05481C3.64581 5.05856 3.76437 5.06125 3.86506 5.06125C4.42587 5.06125 5.29393 4.99312 5.29393 4.99312C5.58293 4.97612 5.61706 5.40062 5.32831 5.43481C5.32831 5.43481 5.03787 5.469 4.71468 5.48593L6.66706 11.2933L7.84037 7.77437L7.00506 5.48575C6.71637 5.46881 6.44287 5.43462 6.44287 5.43462C6.15393 5.41768 6.18781 4.97593 6.47675 4.993C6.47675 4.993 7.36212 5.061 7.88893 5.061C8.44968 5.061 9.31781 4.993 9.31781 4.993C9.60706 4.97593 9.641 5.40043 9.35218 5.43462C9.35218 5.43462 9.06112 5.46881 8.73856 5.48575L10.6761 11.2491L11.2109 9.46212C11.4427 8.7205 11.6191 8.18787 11.6191 7.72887Z" fill="white"/>
<path d="M8.09398 8.4685L6.48535 13.1429C6.97717 13.2877 7.48721 13.3613 7.99991 13.3613C8.6063 13.3615 9.20831 13.2587 9.78029 13.0574C9.76542 13.0339 9.75266 13.0092 9.74216 12.9835L8.09398 8.4685ZM12.7044 5.42725C12.7287 5.60998 12.7408 5.79415 12.7405 5.9785C12.7405 6.52256 12.6389 7.13418 12.3328 7.89893L10.6951 12.6339C12.289 11.7044 13.3612 9.97756 13.3612 7.99962C13.3612 7.06743 13.1232 6.19087 12.7044 5.42725Z" fill="white"/>
<path d="M7.99988 1.75C4.55375 1.75 1.75 4.55356 1.75 7.99963C1.75 11.4461 4.55375 14.2496 7.99988 14.2496C11.4458 14.2496 14.25 11.4461 14.25 7.99963C14.2499 4.55356 11.4458 1.75 7.99988 1.75ZM7.99988 13.9631C4.71175 13.9631 2.03656 11.2879 2.03656 7.99963C2.03656 4.71156 4.71169 2.03656 7.99988 2.03656C11.2878 2.03656 13.9628 4.71156 13.9628 7.99963C13.9628 11.2879 11.2878 13.9631 7.99988 13.9631Z" fill="white"/>
</g>
<defs>
<clipPath id="clip0_104_121">
<rect width="16" height="16" fill="white"/>
</clipPath>
</defs>
</svg>
